<svg width="49" height="32" viewBox="0 0 49 32" fill="none" xmlns="http://www.w3.org/2000/svg">
<path d="M0.5 0.5V31.5" stroke="#D1D1D1"/>
<mask id="mask0_393856_5804" style="mask-type:alpha" maskUnits="userSpaceOnUse" x="16" y="0" width="33" height="32">
<rect x="16.5" width="32" height="32" fill="#D9D9D9"/>
</mask>
<g mask="url(#mask0_393856_5804)">
<path d="M30.2118 20.2137C28.3946 20.2137 26.8567 19.5843 25.598 18.3256C24.3393 17.0669 23.71 15.529 23.71 13.7118C23.71 11.8946 24.3393 10.3567 25.598 9.098C26.8567 7.83931 28.3946 7.20996 30.2118 7.20996C32.029 7.20996 33.5669 7.83931 34.8256 9.098C36.0843 10.3567 36.7137 11.8946 36.7137 13.7118C36.7137 14.4454 36.597 15.1372 36.3636 15.7874C36.1302 16.4376 35.8134 17.0127 35.4133 17.5129L41.0149 23.1145C41.1983 23.2979 41.29 23.5313 41.29 23.8147C41.29 24.0981 41.1983 24.3315 41.0149 24.5149C40.8315 24.6983 40.5981 24.79 40.3147 24.79C40.0313 24.79 39.7979 24.6983 39.6145 24.5149L34.0129 18.9133C33.5127 19.3134 32.9376 19.6302 32.2874 19.8636C31.6372 20.097 30.9454 20.2137 30.2118 20.2137ZM30.2118 18.2131C31.4622 18.2131 32.525 17.7755 33.4002 16.9002C34.2755 16.025 34.7131 14.9622 34.7131 13.7118C34.7131 12.4615 34.2755 11.3987 33.4002 10.5234C32.525 9.64815 31.4622 9.21053 30.2118 9.21053C28.9615 9.21053 27.8987 9.64815 27.0234 10.5234C26.1482 11.3987 25.7105 12.4615 25.7105 13.7118C25.7105 14.9622 26.1482 16.025 27.0234 16.9002C27.8987 17.7755 28.9615 18.2131 30.2118 18.2131Z" fill="#2A3647"/>
</g>
</svg>
