<svg width="139" height="216" viewBox="0 0 139 216" fill="none" xmlns="http://www.w3.org/2000/svg">
<rect x="0.5" y="0.5" width="138" height="215" rx="4.5" stroke="#9747FF" stroke-dasharray="10 5"/>
<rect x="20.5" y="20.5" width="98" height="47" rx="7.5" stroke="#2A3647"/>
<path d="M45.4091 50V38.3636H49.4773C50.2879 38.3636 50.9564 38.5038 51.483 38.7841C52.0095 39.0606 52.4015 39.4337 52.6591 39.9034C52.9167 40.3693 53.0455 40.8864 53.0455 41.4545C53.0455 41.9545 52.9564 42.3674 52.7784 42.6932C52.6042 43.0189 52.3731 43.2765 52.0852 43.4659C51.8011 43.6553 51.4924 43.7955 51.1591 43.8864V44C51.5152 44.0227 51.8731 44.1477 52.233 44.375C52.5928 44.6023 52.8939 44.928 53.1364 45.3523C53.3788 45.7765 53.5 46.2955 53.5 46.9091C53.5 47.4924 53.3674 48.017 53.1023 48.483C52.8371 48.9489 52.4186 49.3182 51.8466 49.5909C51.2746 49.8636 50.5303 50 49.6136 50H45.4091ZM46.8182 48.75H49.6136C50.5341 48.75 51.1875 48.572 51.5739 48.2159C51.964 47.8561 52.1591 47.4205 52.1591 46.9091C52.1591 46.5152 52.0587 46.1515 51.858 45.8182C51.6572 45.4811 51.3712 45.2121 51 45.0114C50.6288 44.8068 50.1894 44.7045 49.6818 44.7045H46.8182V48.75ZM46.8182 43.4773H49.4318C49.8561 43.4773 50.2386 43.3939 50.5795 43.2273C50.9242 43.0606 51.197 42.8258 51.3977 42.5227C51.6023 42.2197 51.7045 41.8636 51.7045 41.4545C51.7045 40.9432 51.5265 40.5095 51.1705 40.1534C50.8144 39.7936 50.25 39.6136 49.4773 39.6136H46.8182V43.4773ZM61.1335 46.4318V41.2727H62.4744V50H61.1335V48.5227H61.0426C60.8381 48.9659 60.5199 49.3428 60.0881 49.6534C59.6563 49.9602 59.1108 50.1136 58.4517 50.1136C57.9062 50.1136 57.4214 49.9943 56.9972 49.7557C56.5729 49.5133 56.2396 49.1496 55.9972 48.6648C55.7547 48.1761 55.6335 47.5606 55.6335 46.8182V41.2727H56.9744V46.7273C56.9744 47.3636 57.1525 47.8712 57.5085 48.25C57.8684 48.6288 58.3267 48.8182 58.8835 48.8182C59.2169 48.8182 59.5559 48.733 59.9006 48.5625C60.2491 48.392 60.5407 48.1307 60.7756 47.7784C61.0142 47.4261 61.1335 46.9773 61.1335 46.4318ZM68.7259 41.2727V42.4091H64.2031V41.2727H68.7259ZM65.5213 39.1818H66.8622V47.5C66.8622 47.8788 66.9171 48.1629 67.027 48.3523C67.1406 48.5379 67.2846 48.6629 67.4588 48.7273C67.6368 48.7879 67.8243 48.8182 68.0213 48.8182C68.169 48.8182 68.2902 48.8106 68.3849 48.7955C68.4796 48.7765 68.5554 48.7614 68.6122 48.75L68.8849 49.9545C68.794 49.9886 68.6671 50.0227 68.5043 50.0568C68.3414 50.0947 68.1349 50.1136 67.8849 50.1136C67.5062 50.1136 67.1349 50.0322 66.7713 49.8693C66.4115 49.7064 66.1122 49.4583 65.8736 49.125C65.6387 48.7917 65.5213 48.3712 65.5213 47.8636V39.1818ZM74.5384 41.2727V42.4091H70.0156V41.2727H74.5384ZM71.3338 39.1818H72.6747V47.5C72.6747 47.8788 72.7296 48.1629 72.8395 48.3523C72.9531 48.5379 73.0971 48.6629 73.2713 48.7273C73.4493 48.7879 73.6368 48.8182 73.8338 48.8182C73.9815 48.8182 74.1027 48.8106 74.1974 48.7955C74.2921 48.7765 74.3679 48.7614 74.4247 48.75L74.6974 49.9545C74.6065 49.9886 74.4796 50.0227 74.3168 50.0568C74.1539 50.0947 73.9474 50.1136 73.6974 50.1136C73.3187 50.1136 72.9474 50.0322 72.5838 49.8693C72.224 49.7064 71.9247 49.4583 71.6861 49.125C71.4512 48.7917 71.3338 48.3712 71.3338 47.8636V39.1818ZM80.0071 50.1818C79.2192 50.1818 78.5279 49.9943 77.9332 49.6193C77.3423 49.2443 76.8802 48.7197 76.5469 48.0455C76.2173 47.3712 76.0526 46.5833 76.0526 45.6818C76.0526 44.7727 76.2173 43.9792 76.5469 43.3011C76.8802 42.6231 77.3423 42.0966 77.9332 41.7216C78.5279 41.3466 79.2192 41.1591 80.0071 41.1591C80.795 41.1591 81.4844 41.3466 82.0753 41.7216C82.67 42.0966 83.1321 42.6231 83.4616 43.3011C83.795 43.9792 83.9616 44.7727 83.9616 45.6818C83.9616 46.5833 83.795 47.3712 83.4616 48.0455C83.1321 48.7197 82.67 49.2443 82.0753 49.6193C81.4844 49.9943 80.795 50.1818 80.0071 50.1818ZM80.0071 48.9773C80.6056 48.9773 81.098 48.8239 81.4844 48.517C81.8707 48.2102 82.1567 47.8068 82.3423 47.3068C82.5279 46.8068 82.6207 46.2652 82.6207 45.6818C82.6207 45.0985 82.5279 44.5549 82.3423 44.0511C82.1567 43.5473 81.8707 43.1402 81.4844 42.8295C81.098 42.5189 80.6056 42.3636 80.0071 42.3636C79.4086 42.3636 78.9162 42.5189 78.5298 42.8295C78.1435 43.1402 77.8575 43.5473 77.6719 44.0511C77.4863 44.5549 77.3935 45.0985 77.3935 45.6818C77.3935 46.2652 77.4863 46.8068 77.6719 47.3068C77.8575 47.8068 78.1435 48.2102 78.5298 48.517C78.9162 48.8239 79.4086 48.9773 80.0071 48.9773ZM87.3494 44.75V50H86.0085V41.2727H87.304V42.6364H87.4176C87.6222 42.1932 87.9328 41.8371 88.3494 41.5682C88.7661 41.2955 89.304 41.1591 89.9631 41.1591C90.554 41.1591 91.071 41.2803 91.5142 41.5227C91.9574 41.7614 92.3021 42.125 92.5483 42.6136C92.7945 43.0985 92.9176 43.7121 92.9176 44.4545V50H91.5767V44.5455C91.5767 43.8598 91.3987 43.3258 91.0426 42.9432C90.6866 42.5568 90.1979 42.3636 89.5767 42.3636C89.1487 42.3636 88.7661 42.4564 88.429 42.642C88.0956 42.8277 87.8324 43.0985 87.6392 43.4545C87.446 43.8106 87.3494 44.2424 87.3494 44.75Z" fill="#2A3647"/>
<g filter="url(#filter0_d_301_1829)">
<rect x="21" y="85" width="97" height="46" rx="7" stroke="#29ABE2" stroke-width="2" shape-rendering="crispEdges"/>
<path d="M45.4091 114V102.364H49.4773C50.2879 102.364 50.9564 102.504 51.483 102.784C52.0095 103.061 52.4015 103.434 52.6591 103.903C52.9167 104.369 53.0455 104.886 53.0455 105.455C53.0455 105.955 52.9564 106.367 52.7784 106.693C52.6042 107.019 52.3731 107.277 52.0852 107.466C51.8011 107.655 51.4924 107.795 51.1591 107.886V108C51.5152 108.023 51.8731 108.148 52.233 108.375C52.5928 108.602 52.8939 108.928 53.1364 109.352C53.3788 109.777 53.5 110.295 53.5 110.909C53.5 111.492 53.3674 112.017 53.1023 112.483C52.8371 112.949 52.4186 113.318 51.8466 113.591C51.2746 113.864 50.5303 114 49.6136 114H45.4091ZM46.8182 112.75H49.6136C50.5341 112.75 51.1875 112.572 51.5739 112.216C51.964 111.856 52.1591 111.42 52.1591 110.909C52.1591 110.515 52.0587 110.152 51.858 109.818C51.6572 109.481 51.3712 109.212 51 109.011C50.6288 108.807 50.1894 108.705 49.6818 108.705H46.8182V112.75ZM46.8182 107.477H49.4318C49.8561 107.477 50.2386 107.394 50.5795 107.227C50.9242 107.061 51.197 106.826 51.3977 106.523C51.6023 106.22 51.7045 105.864 51.7045 105.455C51.7045 104.943 51.5265 104.509 51.1705 104.153C50.8144 103.794 50.25 103.614 49.4773 103.614H46.8182V107.477ZM61.1335 110.432V105.273H62.4744V114H61.1335V112.523H61.0426C60.8381 112.966 60.5199 113.343 60.0881 113.653C59.6563 113.96 59.1108 114.114 58.4517 114.114C57.9062 114.114 57.4214 113.994 56.9972 113.756C56.5729 113.513 56.2396 113.15 55.9972 112.665C55.7547 112.176 55.6335 111.561 55.6335 110.818V105.273H56.9744V110.727C56.9744 111.364 57.1525 111.871 57.5085 112.25C57.8684 112.629 58.3267 112.818 58.8835 112.818C59.2169 112.818 59.5559 112.733 59.9006 112.562C60.2491 112.392 60.5407 112.131 60.7756 111.778C61.0142 111.426 61.1335 110.977 61.1335 110.432ZM68.7259 105.273V106.409H64.2031V105.273H68.7259ZM65.5213 103.182H66.8622V111.5C66.8622 111.879 66.9171 112.163 67.027 112.352C67.1406 112.538 67.2846 112.663 67.4588 112.727C67.6368 112.788 67.8243 112.818 68.0213 112.818C68.169 112.818 68.2902 112.811 68.3849 112.795C68.4796 112.777 68.5554 112.761 68.6122 112.75L68.8849 113.955C68.794 113.989 68.6671 114.023 68.5043 114.057C68.3414 114.095 68.1349 114.114 67.8849 114.114C67.5062 114.114 67.1349 114.032 66.7713 113.869C66.4115 113.706 66.1122 113.458 65.8736 113.125C65.6387 112.792 65.5213 112.371 65.5213 111.864V103.182ZM74.5384 105.273V106.409H70.0156V105.273H74.5384ZM71.3338 103.182H72.6747V111.5C72.6747 111.879 72.7296 112.163 72.8395 112.352C72.9531 112.538 73.0971 112.663 73.2713 112.727C73.4493 112.788 73.6368 112.818 73.8338 112.818C73.9815 112.818 74.1027 112.811 74.1974 112.795C74.2921 112.777 74.3679 112.761 74.4247 112.75L74.6974 113.955C74.6065 113.989 74.4796 114.023 74.3168 114.057C74.1539 114.095 73.9474 114.114 73.6974 114.114C73.3187 114.114 72.9474 114.032 72.5838 113.869C72.224 113.706 71.9247 113.458 71.6861 113.125C71.4512 112.792 71.3338 112.371 71.3338 111.864V103.182ZM80.0071 114.182C79.2192 114.182 78.5279 113.994 77.9332 113.619C77.3423 113.244 76.8802 112.72 76.5469 112.045C76.2173 111.371 76.0526 110.583 76.0526 109.682C76.0526 108.773 76.2173 107.979 76.5469 107.301C76.8802 106.623 77.3423 106.097 77.9332 105.722C78.5279 105.347 79.2192 105.159 80.0071 105.159C80.795 105.159 81.4844 105.347 82.0753 105.722C82.67 106.097 83.1321 106.623 83.4616 107.301C83.795 107.979 83.9616 108.773 83.9616 109.682C83.9616 110.583 83.795 111.371 83.4616 112.045C83.1321 112.72 82.67 113.244 82.0753 113.619C81.4844 113.994 80.795 114.182 80.0071 114.182ZM80.0071 112.977C80.6056 112.977 81.098 112.824 81.4844 112.517C81.8707 112.21 82.1567 111.807 82.3423 111.307C82.5279 110.807 82.6207 110.265 82.6207 109.682C82.6207 109.098 82.5279 108.555 82.3423 108.051C82.1567 107.547 81.8707 107.14 81.4844 106.83C81.098 106.519 80.6056 106.364 80.0071 106.364C79.4086 106.364 78.9162 106.519 78.5298 106.83C78.1435 107.14 77.8575 107.547 77.6719 108.051C77.4863 108.555 77.3935 109.098 77.3935 109.682C77.3935 110.265 77.4863 110.807 77.6719 111.307C77.8575 111.807 78.1435 112.21 78.5298 112.517C78.9162 112.824 79.4086 112.977 80.0071 112.977ZM87.3494 108.75V114H86.0085V105.273H87.304V106.636H87.4176C87.6222 106.193 87.9328 105.837 88.3494 105.568C88.7661 105.295 89.304 105.159 89.9631 105.159C90.554 105.159 91.071 105.28 91.5142 105.523C91.9574 105.761 92.3021 106.125 92.5483 106.614C92.7945 107.098 92.9176 107.712 92.9176 108.455V114H91.5767V108.545C91.5767 107.86 91.3987 107.326 91.0426 106.943C90.6866 106.557 90.1979 106.364 89.5767 106.364C89.1487 106.364 88.7661 106.456 88.429 106.642C88.0956 106.828 87.8324 107.098 87.6392 107.455C87.446 107.811 87.3494 108.242 87.3494 108.75Z" fill="#29ABE2"/>
</g>
<g filter="url(#filter1_d_301_1829)">
<rect x="20.5" y="148.5" width="98" height="47" rx="7.5" stroke="#091931" shape-rendering="crispEdges"/>
<path d="M45.4091 178V166.364H49.4773C50.2879 166.364 50.9564 166.504 51.483 166.784C52.0095 167.061 52.4015 167.434 52.6591 167.903C52.9167 168.369 53.0455 168.886 53.0455 169.455C53.0455 169.955 52.9564 170.367 52.7784 170.693C52.6042 171.019 52.3731 171.277 52.0852 171.466C51.8011 171.655 51.4924 171.795 51.1591 171.886V172C51.5152 172.023 51.8731 172.148 52.233 172.375C52.5928 172.602 52.8939 172.928 53.1364 173.352C53.3788 173.777 53.5 174.295 53.5 174.909C53.5 175.492 53.3674 176.017 53.1023 176.483C52.8371 176.949 52.4186 177.318 51.8466 177.591C51.2746 177.864 50.5303 178 49.6136 178H45.4091ZM46.8182 176.75H49.6136C50.5341 176.75 51.1875 176.572 51.5739 176.216C51.964 175.856 52.1591 175.42 52.1591 174.909C52.1591 174.515 52.0587 174.152 51.858 173.818C51.6572 173.481 51.3712 173.212 51 173.011C50.6288 172.807 50.1894 172.705 49.6818 172.705H46.8182V176.75ZM46.8182 171.477H49.4318C49.8561 171.477 50.2386 171.394 50.5795 171.227C50.9242 171.061 51.197 170.826 51.3977 170.523C51.6023 170.22 51.7045 169.864 51.7045 169.455C51.7045 168.943 51.5265 168.509 51.1705 168.153C50.8144 167.794 50.25 167.614 49.4773 167.614H46.8182V171.477ZM61.1335 174.432V169.273H62.4744V178H61.1335V176.523H61.0426C60.8381 176.966 60.5199 177.343 60.0881 177.653C59.6563 177.96 59.1108 178.114 58.4517 178.114C57.9062 178.114 57.4214 177.994 56.9972 177.756C56.5729 177.513 56.2396 177.15 55.9972 176.665C55.7547 176.176 55.6335 175.561 55.6335 174.818V169.273H56.9744V174.727C56.9744 175.364 57.1525 175.871 57.5085 176.25C57.8684 176.629 58.3267 176.818 58.8835 176.818C59.2169 176.818 59.5559 176.733 59.9006 176.562C60.2491 176.392 60.5407 176.131 60.7756 175.778C61.0142 175.426 61.1335 174.977 61.1335 174.432ZM68.7259 169.273V170.409H64.2031V169.273H68.7259ZM65.5213 167.182H66.8622V175.5C66.8622 175.879 66.9171 176.163 67.027 176.352C67.1406 176.538 67.2846 176.663 67.4588 176.727C67.6368 176.788 67.8243 176.818 68.0213 176.818C68.169 176.818 68.2902 176.811 68.3849 176.795C68.4796 176.777 68.5554 176.761 68.6122 176.75L68.8849 177.955C68.794 177.989 68.6671 178.023 68.5043 178.057C68.3414 178.095 68.1349 178.114 67.8849 178.114C67.5062 178.114 67.1349 178.032 66.7713 177.869C66.4115 177.706 66.1122 177.458 65.8736 177.125C65.6387 176.792 65.5213 176.371 65.5213 175.864V167.182ZM74.5384 169.273V170.409H70.0156V169.273H74.5384ZM71.3338 167.182H72.6747V175.5C72.6747 175.879 72.7296 176.163 72.8395 176.352C72.9531 176.538 73.0971 176.663 73.2713 176.727C73.4493 176.788 73.6368 176.818 73.8338 176.818C73.9815 176.818 74.1027 176.811 74.1974 176.795C74.2921 176.777 74.3679 176.761 74.4247 176.75L74.6974 177.955C74.6065 177.989 74.4796 178.023 74.3168 178.057C74.1539 178.095 73.9474 178.114 73.6974 178.114C73.3187 178.114 72.9474 178.032 72.5838 177.869C72.224 177.706 71.9247 177.458 71.6861 177.125C71.4512 176.792 71.3338 176.371 71.3338 175.864V167.182ZM80.0071 178.182C79.2192 178.182 78.5279 177.994 77.9332 177.619C77.3423 177.244 76.8802 176.72 76.5469 176.045C76.2173 175.371 76.0526 174.583 76.0526 173.682C76.0526 172.773 76.2173 171.979 76.5469 171.301C76.8802 170.623 77.3423 170.097 77.9332 169.722C78.5279 169.347 79.2192 169.159 80.0071 169.159C80.795 169.159 81.4844 169.347 82.0753 169.722C82.67 170.097 83.1321 170.623 83.4616 171.301C83.795 171.979 83.9616 172.773 83.9616 173.682C83.9616 174.583 83.795 175.371 83.4616 176.045C83.1321 176.72 82.67 177.244 82.0753 177.619C81.4844 177.994 80.795 178.182 80.0071 178.182ZM80.0071 176.977C80.6056 176.977 81.098 176.824 81.4844 176.517C81.8707 176.21 82.1567 175.807 82.3423 175.307C82.5279 174.807 82.6207 174.265 82.6207 173.682C82.6207 173.098 82.5279 172.555 82.3423 172.051C82.1567 171.547 81.8707 171.14 81.4844 170.83C81.098 170.519 80.6056 170.364 80.0071 170.364C79.4086 170.364 78.9162 170.519 78.5298 170.83C78.1435 171.14 77.8575 171.547 77.6719 172.051C77.4863 172.555 77.3935 173.098 77.3935 173.682C77.3935 174.265 77.4863 174.807 77.6719 175.307C77.8575 175.807 78.1435 176.21 78.5298 176.517C78.9162 176.824 79.4086 176.977 80.0071 176.977ZM87.3494 172.75V178H86.0085V169.273H87.304V170.636H87.4176C87.6222 170.193 87.9328 169.837 88.3494 169.568C88.7661 169.295 89.304 169.159 89.9631 169.159C90.554 169.159 91.071 169.28 91.5142 169.523C91.9574 169.761 92.3021 170.125 92.5483 170.614C92.7945 171.098 92.9176 171.712 92.9176 172.455V178H91.5767V172.545C91.5767 171.86 91.3987 171.326 91.0426 170.943C90.6866 170.557 90.1979 170.364 89.5767 170.364C89.1487 170.364 88.7661 170.456 88.429 170.642C88.0956 170.828 87.8324 171.098 87.6392 171.455C87.446 171.811 87.3494 172.242 87.3494 172.75Z" fill="#091931"/>
</g>
<defs>
<filter id="filter0_d_301_1829" x="16" y="84" width="107" height="56" filterUnits="userSpaceOnUse" color-interpolation-filters="sRGB">
<feFlood flood-opacity="0" result="BackgroundImageFix"/>
<feColorMatrix in="SourceAlpha" type="matrix" values="0 0 0 0 0 0 0 0 0 0 0 0 0 0 0 0 0 0 127 0" result="hardAlpha"/>
<feOffset dy="4"/>
<feGaussianBlur stdDeviation="2"/>
<feComposite in2="hardAlpha" operator="out"/>
<feColorMatrix type="matrix" values="0 0 0 0 0 0 0 0 0 0 0 0 0 0 0 0 0 0 0.25 0"/>
<feBlend mode="normal" in2="BackgroundImageFix" result="effect1_dropShadow_301_1829"/>
<feBlend mode="normal" in="SourceGraphic" in2="effect1_dropShadow_301_1829" result="shape"/>
</filter>
<filter id="filter1_d_301_1829" x="16" y="148" width="107" height="56" filterUnits="userSpaceOnUse" color-interpolation-filters="sRGB">
<feFlood flood-opacity="0" result="BackgroundImageFix"/>
<feColorMatrix in="SourceAlpha" type="matrix" values="0 0 0 0 0 0 0 0 0 0 0 0 0 0 0 0 0 0 127 0" result="hardAlpha"/>
<feOffset dy="4"/>
<feGaussianBlur stdDeviation="2"/>
<feComposite in2="hardAlpha" operator="out"/>
<feColorMatrix type="matrix" values="0 0 0 0 0 0 0 0 0 0 0 0 0 0 0 0 0 0 0.25 0"/>
<feBlend mode="normal" in2="BackgroundImageFix" result="effect1_dropShadow_301_1829"/>
<feBlend mode="normal" in="SourceGraphic" in2="effect1_dropShadow_301_1829" result="shape"/>
</filter>
</defs>
</svg>
