<svg width="524" height="70" viewBox="0 0 524 70" fill="none" xmlns="http://www.w3.org/2000/svg">
<rect x="0.5" y="0.5" width="523" height="69" rx="4.5" stroke="#9747FF" stroke-dasharray="10 5"/>
<path d="M101.227 22.5H80.7727H80.5C79.3954 22.5 78.5 23.3957 78.5 24.5003C78.5 24.6801 78.5 24.8075 78.5 24.84V45.2945V45.5C78.5 46.6046 79.3957 47.5 80.5003 47.5C80.6438 47.5 80.744 47.5 80.7727 47.5H101.227C101.256 47.5 101.356 47.5 101.5 47.5C102.604 47.5 103.5 46.6041 103.5 45.4995C103.5 45.3927 103.5 45.3188 103.5 45.2945V24.8399C103.5 24.8074 103.5 24.6801 103.5 24.5003C103.5 23.3957 102.604 22.5 101.5 22.5C101.356 22.5 101.256 22.5 101.227 22.5ZM93.2727 45.2945H80.7727V36.2036H93.2727V45.2945ZM93.2727 33.9309H80.7727V24.84L93.2727 24.8399V33.9309ZM101.227 45.2945H95.5455V24.84H101.227V45.2945Z" fill="#CDCDCD"/>
<path d="M114.773 30.1136V28.8636H123.5V30.1136H119.841V40.5H118.432V30.1136H114.773ZM127.886 40.6818C127.045 40.6818 126.32 40.4962 125.71 40.125C125.104 39.75 124.636 39.2273 124.307 38.5568C123.981 37.8826 123.818 37.0985 123.818 36.2045C123.818 35.3106 123.981 34.5227 124.307 33.8409C124.636 33.1553 125.095 32.6212 125.682 32.2386C126.273 31.8523 126.962 31.6591 127.75 31.6591C128.205 31.6591 128.653 31.7348 129.097 31.8864C129.54 32.0379 129.943 32.2841 130.307 32.625C130.67 32.9621 130.96 33.4091 131.176 33.9659C131.392 34.5227 131.5 35.2083 131.5 36.0227V36.5909H124.773V35.4318H130.136C130.136 34.9394 130.038 34.5 129.841 34.1136C129.648 33.7273 129.371 33.4223 129.011 33.1989C128.655 32.9754 128.235 32.8636 127.75 32.8636C127.216 32.8636 126.754 32.9962 126.364 33.2614C125.977 33.5227 125.68 33.8636 125.472 34.2841C125.263 34.7045 125.159 35.1553 125.159 35.6364V36.4091C125.159 37.0682 125.273 37.6269 125.5 38.0852C125.731 38.5398 126.051 38.8864 126.46 39.125C126.869 39.3598 127.345 39.4773 127.886 39.4773C128.239 39.4773 128.557 39.428 128.841 39.3295C129.129 39.2273 129.377 39.0758 129.585 38.875C129.794 38.6705 129.955 38.4167 130.068 38.1136L131.364 38.4773C131.227 38.9167 130.998 39.303 130.676 39.6364C130.354 39.9659 129.956 40.2235 129.483 40.4091C129.009 40.5909 128.477 40.6818 127.886 40.6818ZM134.305 31.7727L136.396 35.3409L138.487 31.7727H140.033L137.214 36.1364L140.033 40.5H138.487L136.396 37.1136L134.305 40.5H132.76L135.533 36.1364L132.76 31.7727H134.305ZM145.741 31.7727V32.9091H141.219V31.7727H145.741ZM142.537 29.6818H143.878V38C143.878 38.3788 143.933 38.6629 144.043 38.8523C144.156 39.0379 144.3 39.1629 144.474 39.2273C144.652 39.2879 144.84 39.3182 145.037 39.3182C145.185 39.3182 145.306 39.3106 145.401 39.2955C145.495 39.2765 145.571 39.2614 145.628 39.25L145.901 40.4545C145.81 40.4886 145.683 40.5227 145.52 40.5568C145.357 40.5947 145.151 40.6136 144.901 40.6136C144.522 40.6136 144.151 40.5322 143.787 40.3693C143.427 40.2064 143.128 39.9583 142.889 39.625C142.654 39.2917 142.537 38.8712 142.537 38.3636V29.6818Z" fill="#CDCDCD"/>
<rect width="232" height="46" transform="translate(272 12)" fill="#2A3D59"/>
<path d="M353.227 22.5H332.773H332.5C331.395 22.5 330.5 23.3957 330.5 24.5003C330.5 24.6801 330.5 24.8075 330.5 24.84V45.2945V45.5C330.5 46.6046 331.396 47.5 332.5 47.5C332.644 47.5 332.744 47.5 332.773 47.5H353.227C353.256 47.5 353.356 47.5 353.5 47.5C354.604 47.5 355.5 46.6041 355.5 45.4995C355.5 45.3927 355.5 45.3188 355.5 45.2945V24.8399C355.5 24.8074 355.5 24.6801 355.5 24.5003C355.5 23.3957 354.604 22.5 353.5 22.5C353.356 22.5 353.256 22.5 353.227 22.5ZM345.273 45.2945H332.773V36.2036H345.273V45.2945ZM345.273 33.9309H332.773V24.84L345.273 24.8399V33.9309ZM353.227 45.2945H347.545V24.84H353.227V45.2945Z" fill="#CDCDCD"/>
<path d="M366.773 30.1136V28.8636H375.5V30.1136H371.841V40.5H370.432V30.1136H366.773ZM379.886 40.6818C379.045 40.6818 378.32 40.4962 377.71 40.125C377.104 39.75 376.636 39.2273 376.307 38.5568C375.981 37.8826 375.818 37.0985 375.818 36.2045C375.818 35.3106 375.981 34.5227 376.307 33.8409C376.636 33.1553 377.095 32.6212 377.682 32.2386C378.273 31.8523 378.962 31.6591 379.75 31.6591C380.205 31.6591 380.653 31.7348 381.097 31.8864C381.54 32.0379 381.943 32.2841 382.307 32.625C382.67 32.9621 382.96 33.4091 383.176 33.9659C383.392 34.5227 383.5 35.2083 383.5 36.0227V36.5909H376.773V35.4318H382.136C382.136 34.9394 382.038 34.5 381.841 34.1136C381.648 33.7273 381.371 33.4223 381.011 33.1989C380.655 32.9754 380.235 32.8636 379.75 32.8636C379.216 32.8636 378.754 32.9962 378.364 33.2614C377.977 33.5227 377.68 33.8636 377.472 34.2841C377.263 34.7045 377.159 35.1553 377.159 35.6364V36.4091C377.159 37.0682 377.273 37.6269 377.5 38.0852C377.731 38.5398 378.051 38.8864 378.46 39.125C378.869 39.3598 379.345 39.4773 379.886 39.4773C380.239 39.4773 380.557 39.428 380.841 39.3295C381.129 39.2273 381.377 39.0758 381.585 38.875C381.794 38.6705 381.955 38.4167 382.068 38.1136L383.364 38.4773C383.227 38.9167 382.998 39.303 382.676 39.6364C382.354 39.9659 381.956 40.2235 381.483 40.4091C381.009 40.5909 380.477 40.6818 379.886 40.6818ZM386.305 31.7727L388.396 35.3409L390.487 31.7727H392.033L389.214 36.1364L392.033 40.5H390.487L388.396 37.1136L386.305 40.5H384.76L387.533 36.1364L384.76 31.7727H386.305ZM397.741 31.7727V32.9091H393.219V31.7727H397.741ZM394.537 29.6818H395.878V38C395.878 38.3788 395.933 38.6629 396.043 38.8523C396.156 39.0379 396.3 39.1629 396.474 39.2273C396.652 39.2879 396.84 39.3182 397.037 39.3182C397.185 39.3182 397.306 39.3106 397.401 39.2955C397.495 39.2765 397.571 39.2614 397.628 39.25L397.901 40.4545C397.81 40.4886 397.683 40.5227 397.52 40.5568C397.357 40.5947 397.151 40.6136 396.901 40.6136C396.522 40.6136 396.151 40.5322 395.787 40.3693C395.427 40.2064 395.128 39.9583 394.889 39.625C394.654 39.2917 394.537 38.8712 394.537 38.3636V29.6818Z" fill="#CDCDCD"/>
</svg>
