<svg width="223" height="240" viewBox="0 0 223 240" fill="none" xmlns="http://www.w3.org/2000/svg">
<rect x="0.5" y="0.5" width="222" height="239" rx="4.5" stroke="#9747FF" stroke-dasharray="10 5"/>
<rect x="20" y="20" width="183" height="56" rx="10" fill="#2A3647"/>
<path d="M50.8029 46.0742H47.5366C47.4769 45.6516 47.3551 45.2763 47.1712 44.9482C46.9872 44.6151 46.7511 44.3317 46.4627 44.098C46.1744 43.8643 45.8413 43.6854 45.4634 43.5611C45.0906 43.4368 44.6854 43.3746 44.2479 43.3746C43.4574 43.3746 42.7688 43.571 42.1822 43.9638C41.5955 44.3516 41.1406 44.9183 40.8175 45.6641C40.4943 46.4048 40.3327 47.3047 40.3327 48.3636C40.3327 49.4524 40.4943 50.3672 40.8175 51.108C41.1456 51.8487 41.603 52.408 42.1896 52.7859C42.7763 53.1637 43.4549 53.3526 44.2255 53.3526C44.658 53.3526 45.0582 53.2955 45.4261 53.1811C45.799 53.0668 46.1296 52.9002 46.418 52.6815C46.7063 52.4577 46.945 52.1868 47.1339 51.8686C47.3278 51.5504 47.462 51.1875 47.5366 50.7798L50.8029 50.7947C50.7184 51.4957 50.5071 52.1719 50.169 52.8232C49.8359 53.4695 49.386 54.0487 48.8192 54.5607C48.2575 55.0678 47.5863 55.4705 46.8058 55.7688C46.0302 56.0621 45.1527 56.2088 44.1733 56.2088C42.8111 56.2088 41.593 55.9006 40.5192 55.2841C39.4503 54.6676 38.6051 53.7752 37.9837 52.6069C37.3672 51.4386 37.0589 50.0241 37.0589 48.3636C37.0589 46.6982 37.3722 45.2812 37.9986 44.1129C38.625 42.9446 39.4751 42.0547 40.549 41.4432C41.6229 40.8267 42.831 40.5185 44.1733 40.5185C45.0582 40.5185 45.8786 40.6428 46.6342 40.8913C47.3949 41.1399 48.0685 41.5028 48.6552 41.9801C49.2418 42.4524 49.7191 43.0316 50.087 43.7177C50.4599 44.4038 50.6985 45.1893 50.8029 46.0742ZM53.0588 56V44.5455H56.1387V46.544H56.258C56.4668 45.8331 56.8173 45.2962 57.3095 44.9332C57.8017 44.5653 58.3684 44.3814 59.0098 44.3814C59.1689 44.3814 59.3404 44.3913 59.5243 44.4112C59.7083 44.4311 59.8699 44.4585 60.0091 44.4933V47.3121C59.8599 47.2674 59.6536 47.2276 59.3901 47.1928C59.1266 47.158 58.8855 47.1406 58.6667 47.1406C58.1994 47.1406 57.7818 47.2425 57.4139 47.4464C57.051 47.6452 56.7626 47.9237 56.5488 48.2816C56.34 48.6396 56.2356 49.0522 56.2356 49.5195V56H53.0588ZM66.3385 56.2237C65.1602 56.2237 64.146 55.9851 63.2959 55.5078C62.4507 55.0256 61.7994 54.3445 61.3421 53.4645C60.8847 52.5795 60.656 51.533 60.656 50.3249C60.656 49.1467 60.8847 48.1126 61.3421 47.2227C61.7994 46.3327 62.4433 45.6392 63.2735 45.142C64.1088 44.6449 65.0882 44.3963 66.2117 44.3963C66.9674 44.3963 67.6709 44.5181 68.3222 44.7617C68.9784 45.0004 69.5502 45.3608 70.0374 45.843C70.5296 46.3253 70.9124 46.9318 71.1858 47.6626C71.4593 48.3885 71.596 49.2386 71.596 50.2131V51.0856H61.9237V49.1168H68.6056C68.6056 48.6594 68.5061 48.2543 68.3073 47.9013C68.1084 47.5483 67.8325 47.2724 67.4795 47.0735C67.1315 46.8697 66.7263 46.7678 66.2639 46.7678C65.7817 46.7678 65.3541 46.8796 64.9813 47.1033C64.6134 47.3221 64.325 47.6179 64.1162 47.9908C63.9074 48.3587 63.8005 48.7688 63.7955 49.2212V51.093C63.7955 51.6598 63.8999 52.1495 64.1088 52.5621C64.3225 52.9748 64.6233 53.293 65.0111 53.5167C65.3989 53.7404 65.8588 53.8523 66.3907 53.8523C66.7437 53.8523 67.0669 53.8026 67.3602 53.7031C67.6535 53.6037 67.9046 53.4545 68.1134 53.2557C68.3222 53.0568 68.4813 52.8132 68.5906 52.5249L71.5289 52.7188C71.3797 53.4247 71.074 54.0412 70.6116 54.5682C70.1542 55.0902 69.5626 55.4979 68.8367 55.7912C68.1159 56.0795 67.2831 56.2237 66.3385 56.2237ZM76.9355 56.2163C76.2046 56.2163 75.5534 56.0895 74.9816 55.8359C74.4099 55.5774 73.9575 55.1971 73.6244 54.695C73.2963 54.1879 73.1322 53.5565 73.1322 52.8008C73.1322 52.1644 73.249 51.63 73.4827 51.1974C73.7164 50.7649 74.0345 50.4169 74.4372 50.1534C74.8399 49.8899 75.2973 49.6911 75.8094 49.5568C76.3264 49.4226 76.8683 49.3281 77.4351 49.2734C78.1013 49.2038 78.6382 49.1392 79.0459 49.0795C79.4536 49.0149 79.7494 48.9205 79.9333 48.7962C80.1173 48.6719 80.2093 48.4879 80.2093 48.2443V48.1996C80.2093 47.7273 80.0601 47.3619 79.7618 47.1033C79.4685 46.8448 79.0509 46.7156 78.509 46.7156C77.9372 46.7156 77.4823 46.8423 77.1443 47.0959C76.8062 47.3445 76.5825 47.6577 76.4731 48.0355L73.5349 47.7969C73.684 47.1009 73.9774 46.4993 74.4149 45.9922C74.8524 45.4801 75.4166 45.0874 76.1077 44.8139C76.8037 44.5355 77.6091 44.3963 78.5239 44.3963C79.1602 44.3963 79.7693 44.4709 80.3509 44.62C80.9376 44.7692 81.4571 45.0004 81.9095 45.3136C82.3669 45.6268 82.7274 46.0295 82.9909 46.5217C83.2544 47.0089 83.3861 47.593 83.3861 48.2741V56H80.3733V54.4116H80.2838C80.0999 54.7695 79.8538 55.0852 79.5455 55.3587C79.2373 55.6271 78.8669 55.8384 78.4344 55.9925C78.0019 56.1417 77.5022 56.2163 76.9355 56.2163ZM77.8453 54.0238C78.3126 54.0238 78.7252 53.9318 79.0832 53.7479C79.4411 53.5589 79.722 53.3054 79.9259 52.9872C80.1297 52.669 80.2316 52.3086 80.2316 51.9059V50.6903C80.1322 50.755 79.9955 50.8146 79.8215 50.8693C79.6524 50.919 79.461 50.9663 79.2472 51.011C79.0335 51.0508 78.8197 51.0881 78.6059 51.1229C78.3921 51.1527 78.1982 51.18 78.0242 51.2049C77.6514 51.2596 77.3257 51.3466 77.0473 51.4659C76.7689 51.5852 76.5526 51.7468 76.3985 51.9506C76.2444 52.1495 76.1673 52.3981 76.1673 52.6964C76.1673 53.1289 76.324 53.4595 76.6372 53.6882C76.9553 53.9119 77.358 54.0238 77.8453 54.0238ZM91.9434 44.5455V46.9318H85.0454V44.5455H91.9434ZM86.6114 41.8011H89.7883V52.4801C89.7883 52.7734 89.833 53.0021 89.9225 53.1662C90.012 53.3253 90.1363 53.4371 90.2954 53.5018C90.4594 53.5664 90.6483 53.5987 90.8621 53.5987C91.0113 53.5987 91.1604 53.5863 91.3096 53.5614C91.4587 53.5316 91.5731 53.5092 91.6526 53.4943L92.1523 55.8583C91.9932 55.908 91.7694 55.9652 91.4811 56.0298C91.1927 56.0994 90.8422 56.1417 90.4296 56.1566C89.664 56.1864 88.9928 56.0845 88.4161 55.8509C87.8444 55.6172 87.3994 55.2543 87.0812 54.7621C86.7631 54.2699 86.6064 53.6484 86.6114 52.8977V41.8011ZM99.11 56.2237C97.9317 56.2237 96.9175 55.9851 96.0674 55.5078C95.2222 55.0256 94.5709 54.3445 94.1135 53.4645C93.6562 52.5795 93.4275 51.533 93.4275 50.3249C93.4275 49.1467 93.6562 48.1126 94.1135 47.2227C94.5709 46.3327 95.2148 45.6392 96.045 45.142C96.8802 44.6449 97.8596 44.3963 98.9832 44.3963C99.7389 44.3963 100.442 44.5181 101.094 44.7617C101.75 45.0004 102.322 45.3608 102.809 45.843C103.301 46.3253 103.684 46.9318 103.957 47.6626C104.231 48.3885 104.367 49.2386 104.367 50.2131V51.0856H94.6952V49.1168H101.377C101.377 48.6594 101.278 48.2543 101.079 47.9013C100.88 47.5483 100.604 47.2724 100.251 47.0735C99.903 46.8697 99.4978 46.7678 99.0354 46.7678C98.5532 46.7678 98.1256 46.8796 97.7528 47.1033C97.3849 47.3221 97.0965 47.6179 96.8877 47.9908C96.6789 48.3587 96.572 48.7688 96.567 49.2212V51.093C96.567 51.6598 96.6714 52.1495 96.8802 52.5621C97.094 52.9748 97.3948 53.293 97.7826 53.5167C98.1704 53.7404 98.6302 53.8523 99.1622 53.8523C99.5152 53.8523 99.8383 53.8026 100.132 53.7031C100.425 53.6037 100.676 53.4545 100.885 53.2557C101.094 53.0568 101.253 52.8132 101.362 52.5249L104.3 52.7188C104.151 53.4247 103.845 54.0412 103.383 54.5682C102.926 55.0902 102.334 55.4979 101.608 55.7912C100.887 56.0795 100.055 56.2237 99.11 56.2237ZM110.779 43.3896V40.7273H123.322V43.3896H118.646V56H115.455V43.3896H110.779ZM127.036 56.2163C126.305 56.2163 125.654 56.0895 125.082 55.8359C124.51 55.5774 124.058 55.1971 123.725 54.695C123.397 54.1879 123.233 53.5565 123.233 52.8008C123.233 52.1644 123.35 51.63 123.583 51.1974C123.817 50.7649 124.135 50.4169 124.538 50.1534C124.941 49.8899 125.398 49.6911 125.91 49.5568C126.427 49.4226 126.969 49.3281 127.536 49.2734C128.202 49.2038 128.739 49.1392 129.146 49.0795C129.554 49.0149 129.85 48.9205 130.034 48.7962C130.218 48.6719 130.31 48.4879 130.31 48.2443V48.1996C130.31 47.7273 130.161 47.3619 129.862 47.1033C129.569 46.8448 129.151 46.7156 128.61 46.7156C128.038 46.7156 127.583 46.8423 127.245 47.0959C126.907 47.3445 126.683 47.6577 126.574 48.0355L123.635 47.7969C123.785 47.1009 124.078 46.4993 124.515 45.9922C124.953 45.4801 125.517 45.0874 126.208 44.8139C126.904 44.5355 127.71 44.3963 128.624 44.3963C129.261 44.3963 129.87 44.4709 130.452 44.62C131.038 44.7692 131.558 45.0004 132.01 45.3136C132.468 45.6268 132.828 46.0295 133.091 46.5217C133.355 47.0089 133.487 47.593 133.487 48.2741V56H130.474V54.4116H130.384C130.2 54.7695 129.954 55.0852 129.646 55.3587C129.338 55.6271 128.968 55.8384 128.535 55.9925C128.102 56.1417 127.603 56.2163 127.036 56.2163ZM127.946 54.0238C128.413 54.0238 128.826 53.9318 129.184 53.7479C129.542 53.5589 129.823 53.3054 130.026 52.9872C130.23 52.669 130.332 52.3086 130.332 51.9059V50.6903C130.233 50.755 130.096 50.8146 129.922 50.8693C129.753 50.919 129.562 50.9663 129.348 51.011C129.134 51.0508 128.92 51.0881 128.706 51.1229C128.493 51.1527 128.299 51.18 128.125 51.2049C127.752 51.2596 127.426 51.3466 127.148 51.4659C126.869 51.5852 126.653 51.7468 126.499 51.9506C126.345 52.1495 126.268 52.3981 126.268 52.6964C126.268 53.1289 126.425 53.4595 126.738 53.6882C127.056 53.9119 127.459 54.0238 127.946 54.0238ZM145.482 47.8118L142.574 47.9908C142.524 47.7422 142.417 47.5185 142.253 47.3196C142.089 47.1158 141.873 46.9542 141.604 46.8349C141.341 46.7106 141.025 46.6484 140.657 46.6484C140.165 46.6484 139.75 46.7528 139.412 46.9616C139.074 47.1655 138.904 47.4389 138.904 47.782C138.904 48.0554 139.014 48.2866 139.233 48.4755C139.451 48.6644 139.827 48.8161 140.359 48.9304L142.432 49.348C143.545 49.5767 144.376 49.9446 144.923 50.4517C145.469 50.9588 145.743 51.625 145.743 52.4503C145.743 53.201 145.522 53.8597 145.079 54.4265C144.642 54.9933 144.04 55.4357 143.275 55.7539C142.514 56.0671 141.636 56.2237 140.642 56.2237C139.126 56.2237 137.918 55.908 137.018 55.2766C136.123 54.6403 135.598 53.7752 135.444 52.6815L138.569 52.5174C138.663 52.9798 138.892 53.3327 139.255 53.5763C139.618 53.815 140.083 53.9343 140.65 53.9343C141.206 53.9343 141.654 53.8274 141.992 53.6136C142.335 53.3949 142.509 53.114 142.514 52.771C142.509 52.4826 142.387 52.2464 142.148 52.0625C141.91 51.8736 141.542 51.7294 141.045 51.63L139.061 51.2347C137.942 51.011 137.11 50.6232 136.563 50.0714C136.021 49.5195 135.75 48.8161 135.75 47.9609C135.75 47.2251 135.949 46.5913 136.347 46.0593C136.749 45.5273 137.314 45.1172 138.039 44.8288C138.77 44.5405 139.625 44.3963 140.605 44.3963C142.051 44.3963 143.19 44.7021 144.02 45.3136C144.855 45.9251 145.343 46.7578 145.482 47.8118ZM150.622 52.7038L150.629 48.8931H151.092L154.761 44.5455H158.407L153.478 50.3026H152.725L150.622 52.7038ZM147.743 56V40.7273H150.92V56H147.743ZM154.902 56L151.532 51.011L153.65 48.7663L158.624 56H154.902Z" fill="white"/>
<mask id="mask0_70_783" style="mask-type:alpha" maskUnits="userSpaceOnUse" x="163" y="36" width="24" height="24">
<rect x="163" y="36" width="24" height="24" fill="#D9D9D9"/>
</mask>
<g mask="url(#mask0_70_783)">
<path d="M172.551 51.15L181.026 42.675C181.226 42.475 181.463 42.375 181.738 42.375C182.013 42.375 182.251 42.475 182.451 42.675C182.651 42.875 182.751 43.1125 182.751 43.3875C182.751 43.6625 182.651 43.9 182.451 44.1L173.251 53.3C173.051 53.5 172.817 53.6 172.551 53.6C172.284 53.6 172.051 53.5 171.851 53.3L167.551 49C167.351 48.8 167.255 48.5625 167.263 48.2875C167.272 48.0125 167.376 47.775 167.576 47.575C167.776 47.375 168.013 47.275 168.288 47.275C168.563 47.275 168.801 47.375 169.001 47.575L172.551 51.15Z" fill="white"/>
</g>
<g filter="url(#filter0_d_70_783)">
<rect x="20" y="92" width="183" height="56" rx="10" fill="#29ABE2"/>
<path d="M50.8029 118.074H47.5366C47.4769 117.652 47.3551 117.276 47.1712 116.948C46.9872 116.615 46.7511 116.332 46.4627 116.098C46.1744 115.864 45.8413 115.685 45.4634 115.561C45.0906 115.437 44.6854 115.375 44.2479 115.375C43.4574 115.375 42.7688 115.571 42.1822 115.964C41.5955 116.352 41.1406 116.918 40.8175 117.664C40.4943 118.405 40.3327 119.305 40.3327 120.364C40.3327 121.452 40.4943 122.367 40.8175 123.108C41.1456 123.849 41.603 124.408 42.1896 124.786C42.7763 125.164 43.4549 125.353 44.2255 125.353C44.658 125.353 45.0582 125.295 45.4261 125.181C45.799 125.067 46.1296 124.9 46.418 124.681C46.7063 124.458 46.945 124.187 47.1339 123.869C47.3278 123.55 47.462 123.187 47.5366 122.78L50.8029 122.795C50.7184 123.496 50.5071 124.172 50.169 124.823C49.8359 125.469 49.386 126.049 48.8192 126.561C48.2575 127.068 47.5863 127.471 46.8058 127.769C46.0302 128.062 45.1527 128.209 44.1733 128.209C42.8111 128.209 41.593 127.901 40.5192 127.284C39.4503 126.668 38.6051 125.775 37.9837 124.607C37.3672 123.439 37.0589 122.024 37.0589 120.364C37.0589 118.698 37.3722 117.281 37.9986 116.113C38.625 114.945 39.4751 114.055 40.549 113.443C41.6229 112.827 42.831 112.518 44.1733 112.518C45.0582 112.518 45.8786 112.643 46.6342 112.891C47.3949 113.14 48.0685 113.503 48.6552 113.98C49.2418 114.452 49.7191 115.032 50.087 115.718C50.4599 116.404 50.6985 117.189 50.8029 118.074ZM53.0588 128V116.545H56.1387V118.544H56.258C56.4668 117.833 56.8173 117.296 57.3095 116.933C57.8017 116.565 58.3684 116.381 59.0098 116.381C59.1689 116.381 59.3404 116.391 59.5243 116.411C59.7083 116.431 59.8699 116.458 60.0091 116.493V119.312C59.8599 119.267 59.6536 119.228 59.3901 119.193C59.1266 119.158 58.8855 119.141 58.6667 119.141C58.1994 119.141 57.7818 119.243 57.4139 119.446C57.051 119.645 56.7626 119.924 56.5488 120.282C56.34 120.64 56.2356 121.052 56.2356 121.52V128H53.0588ZM66.3385 128.224C65.1602 128.224 64.146 127.985 63.2959 127.508C62.4507 127.026 61.7994 126.344 61.3421 125.464C60.8847 124.58 60.656 123.533 60.656 122.325C60.656 121.147 60.8847 120.113 61.3421 119.223C61.7994 118.333 62.4433 117.639 63.2735 117.142C64.1088 116.645 65.0882 116.396 66.2117 116.396C66.9674 116.396 67.6709 116.518 68.3222 116.762C68.9784 117 69.5502 117.361 70.0374 117.843C70.5296 118.325 70.9124 118.932 71.1858 119.663C71.4593 120.388 71.596 121.239 71.596 122.213V123.086H61.9237V121.117H68.6056C68.6056 120.659 68.5061 120.254 68.3073 119.901C68.1084 119.548 67.8325 119.272 67.4795 119.074C67.1315 118.87 66.7263 118.768 66.2639 118.768C65.7817 118.768 65.3541 118.88 64.9813 119.103C64.6134 119.322 64.325 119.618 64.1162 119.991C63.9074 120.359 63.8005 120.769 63.7955 121.221V123.093C63.7955 123.66 63.8999 124.15 64.1088 124.562C64.3225 124.975 64.6233 125.293 65.0111 125.517C65.3989 125.74 65.8588 125.852 66.3907 125.852C66.7437 125.852 67.0669 125.803 67.3602 125.703C67.6535 125.604 67.9046 125.455 68.1134 125.256C68.3222 125.057 68.4813 124.813 68.5906 124.525L71.5289 124.719C71.3797 125.425 71.074 126.041 70.6116 126.568C70.1542 127.09 69.5626 127.498 68.8367 127.791C68.1159 128.08 67.2831 128.224 66.3385 128.224ZM76.9355 128.216C76.2046 128.216 75.5534 128.089 74.9816 127.836C74.4099 127.577 73.9575 127.197 73.6244 126.695C73.2963 126.188 73.1322 125.556 73.1322 124.801C73.1322 124.164 73.249 123.63 73.4827 123.197C73.7164 122.765 74.0345 122.417 74.4372 122.153C74.8399 121.89 75.2973 121.691 75.8094 121.557C76.3264 121.423 76.8683 121.328 77.4351 121.273C78.1013 121.204 78.6382 121.139 79.0459 121.08C79.4536 121.015 79.7494 120.92 79.9333 120.796C80.1173 120.672 80.2093 120.488 80.2093 120.244V120.2C80.2093 119.727 80.0601 119.362 79.7618 119.103C79.4685 118.845 79.0509 118.716 78.509 118.716C77.9372 118.716 77.4823 118.842 77.1443 119.096C76.8062 119.344 76.5825 119.658 76.4731 120.036L73.5349 119.797C73.684 119.101 73.9774 118.499 74.4149 117.992C74.8524 117.48 75.4166 117.087 76.1077 116.814C76.8037 116.536 77.6091 116.396 78.5239 116.396C79.1602 116.396 79.7693 116.471 80.3509 116.62C80.9376 116.769 81.4571 117 81.9095 117.314C82.3669 117.627 82.7274 118.029 82.9909 118.522C83.2544 119.009 83.3861 119.593 83.3861 120.274V128H80.3733V126.412H80.2838C80.0999 126.77 79.8538 127.085 79.5455 127.359C79.2373 127.627 78.8669 127.838 78.4344 127.993C78.0019 128.142 77.5022 128.216 76.9355 128.216ZM77.8453 126.024C78.3126 126.024 78.7252 125.932 79.0832 125.748C79.4411 125.559 79.722 125.305 79.9259 124.987C80.1297 124.669 80.2316 124.309 80.2316 123.906V122.69C80.1322 122.755 79.9955 122.815 79.8215 122.869C79.6524 122.919 79.461 122.966 79.2472 123.011C79.0335 123.051 78.8197 123.088 78.6059 123.123C78.3921 123.153 78.1982 123.18 78.0242 123.205C77.6514 123.26 77.3257 123.347 77.0473 123.466C76.7689 123.585 76.5526 123.747 76.3985 123.951C76.2444 124.15 76.1673 124.398 76.1673 124.696C76.1673 125.129 76.324 125.46 76.6372 125.688C76.9553 125.912 77.358 126.024 77.8453 126.024ZM91.9434 116.545V118.932H85.0454V116.545H91.9434ZM86.6114 113.801H89.7883V124.48C89.7883 124.773 89.833 125.002 89.9225 125.166C90.012 125.325 90.1363 125.437 90.2954 125.502C90.4594 125.566 90.6483 125.599 90.8621 125.599C91.0113 125.599 91.1604 125.586 91.3096 125.561C91.4587 125.532 91.5731 125.509 91.6526 125.494L92.1523 127.858C91.9932 127.908 91.7694 127.965 91.4811 128.03C91.1927 128.099 90.8422 128.142 90.4296 128.157C89.664 128.186 88.9928 128.085 88.4161 127.851C87.8444 127.617 87.3994 127.254 87.0812 126.762C86.7631 126.27 86.6064 125.648 86.6114 124.898V113.801ZM99.11 128.224C97.9317 128.224 96.9175 127.985 96.0674 127.508C95.2222 127.026 94.5709 126.344 94.1135 125.464C93.6562 124.58 93.4275 123.533 93.4275 122.325C93.4275 121.147 93.6562 120.113 94.1135 119.223C94.5709 118.333 95.2148 117.639 96.045 117.142C96.8802 116.645 97.8596 116.396 98.9832 116.396C99.7389 116.396 100.442 116.518 101.094 116.762C101.75 117 102.322 117.361 102.809 117.843C103.301 118.325 103.684 118.932 103.957 119.663C104.231 120.388 104.367 121.239 104.367 122.213V123.086H94.6952V121.117H101.377C101.377 120.659 101.278 120.254 101.079 119.901C100.88 119.548 100.604 119.272 100.251 119.074C99.903 118.87 99.4978 118.768 99.0354 118.768C98.5532 118.768 98.1256 118.88 97.7528 119.103C97.3849 119.322 97.0965 119.618 96.8877 119.991C96.6789 120.359 96.572 120.769 96.567 121.221V123.093C96.567 123.66 96.6714 124.15 96.8802 124.562C97.094 124.975 97.3948 125.293 97.7826 125.517C98.1704 125.74 98.6302 125.852 99.1622 125.852C99.5152 125.852 99.8383 125.803 100.132 125.703C100.425 125.604 100.676 125.455 100.885 125.256C101.094 125.057 101.253 124.813 101.362 124.525L104.3 124.719C104.151 125.425 103.845 126.041 103.383 126.568C102.926 127.09 102.334 127.498 101.608 127.791C100.887 128.08 100.055 128.224 99.11 128.224ZM110.779 115.39V112.727H123.322V115.39H118.646V128H115.455V115.39H110.779ZM127.036 128.216C126.305 128.216 125.654 128.089 125.082 127.836C124.51 127.577 124.058 127.197 123.725 126.695C123.397 126.188 123.233 125.556 123.233 124.801C123.233 124.164 123.35 123.63 123.583 123.197C123.817 122.765 124.135 122.417 124.538 122.153C124.941 121.89 125.398 121.691 125.91 121.557C126.427 121.423 126.969 121.328 127.536 121.273C128.202 121.204 128.739 121.139 129.146 121.08C129.554 121.015 129.85 120.92 130.034 120.796C130.218 120.672 130.31 120.488 130.31 120.244V120.2C130.31 119.727 130.161 119.362 129.862 119.103C129.569 118.845 129.151 118.716 128.61 118.716C128.038 118.716 127.583 118.842 127.245 119.096C126.907 119.344 126.683 119.658 126.574 120.036L123.635 119.797C123.785 119.101 124.078 118.499 124.515 117.992C124.953 117.48 125.517 117.087 126.208 116.814C126.904 116.536 127.71 116.396 128.624 116.396C129.261 116.396 129.87 116.471 130.452 116.62C131.038 116.769 131.558 117 132.01 117.314C132.468 117.627 132.828 118.029 133.091 118.522C133.355 119.009 133.487 119.593 133.487 120.274V128H130.474V126.412H130.384C130.2 126.77 129.954 127.085 129.646 127.359C129.338 127.627 128.968 127.838 128.535 127.993C128.102 128.142 127.603 128.216 127.036 128.216ZM127.946 126.024C128.413 126.024 128.826 125.932 129.184 125.748C129.542 125.559 129.823 125.305 130.026 124.987C130.23 124.669 130.332 124.309 130.332 123.906V122.69C130.233 122.755 130.096 122.815 129.922 122.869C129.753 122.919 129.562 122.966 129.348 123.011C129.134 123.051 128.92 123.088 128.706 123.123C128.493 123.153 128.299 123.18 128.125 123.205C127.752 123.26 127.426 123.347 127.148 123.466C126.869 123.585 126.653 123.747 126.499 123.951C126.345 124.15 126.268 124.398 126.268 124.696C126.268 125.129 126.425 125.46 126.738 125.688C127.056 125.912 127.459 126.024 127.946 126.024ZM145.482 119.812L142.574 119.991C142.524 119.742 142.417 119.518 142.253 119.32C142.089 119.116 141.873 118.954 141.604 118.835C141.341 118.711 141.025 118.648 140.657 118.648C140.165 118.648 139.75 118.753 139.412 118.962C139.074 119.165 138.904 119.439 138.904 119.782C138.904 120.055 139.014 120.287 139.233 120.475C139.451 120.664 139.827 120.816 140.359 120.93L142.432 121.348C143.545 121.577 144.376 121.945 144.923 122.452C145.469 122.959 145.743 123.625 145.743 124.45C145.743 125.201 145.522 125.86 145.079 126.426C144.642 126.993 144.04 127.436 143.275 127.754C142.514 128.067 141.636 128.224 140.642 128.224C139.126 128.224 137.918 127.908 137.018 127.277C136.123 126.64 135.598 125.775 135.444 124.681L138.569 124.517C138.663 124.98 138.892 125.333 139.255 125.576C139.618 125.815 140.083 125.934 140.65 125.934C141.206 125.934 141.654 125.827 141.992 125.614C142.335 125.395 142.509 125.114 142.514 124.771C142.509 124.483 142.387 124.246 142.148 124.062C141.91 123.874 141.542 123.729 141.045 123.63L139.061 123.235C137.942 123.011 137.11 122.623 136.563 122.071C136.021 121.52 135.75 120.816 135.75 119.961C135.75 119.225 135.949 118.591 136.347 118.059C136.749 117.527 137.314 117.117 138.039 116.829C138.77 116.54 139.625 116.396 140.605 116.396C142.051 116.396 143.19 116.702 144.02 117.314C144.855 117.925 145.343 118.758 145.482 119.812ZM150.622 124.704L150.629 120.893H151.092L154.761 116.545H158.407L153.478 122.303H152.725L150.622 124.704ZM147.743 128V112.727H150.92V128H147.743ZM154.902 128L151.532 123.011L153.65 120.766L158.624 128H154.902Z" fill="white"/>
<mask id="mask1_70_783" style="mask-type:alpha" maskUnits="userSpaceOnUse" x="163" y="108" width="24" height="24">
<rect x="163" y="108" width="24" height="24" fill="#D9D9D9"/>
</mask>
<g mask="url(#mask1_70_783)">
<path d="M172.551 123.15L181.026 114.675C181.226 114.475 181.463 114.375 181.738 114.375C182.013 114.375 182.251 114.475 182.451 114.675C182.651 114.875 182.751 115.112 182.751 115.387C182.751 115.662 182.651 115.9 182.451 116.1L173.251 125.3C173.051 125.5 172.817 125.6 172.551 125.6C172.284 125.6 172.051 125.5 171.851 125.3L167.551 121C167.351 120.8 167.255 120.562 167.263 120.287C167.272 120.012 167.376 119.775 167.576 119.575C167.776 119.375 168.013 119.275 168.288 119.275C168.563 119.275 168.801 119.375 169.001 119.575L172.551 123.15Z" fill="white"/>
</g>
</g>
<g filter="url(#filter1_d_70_783)">
<rect x="20" y="164" width="183" height="56" rx="10" fill="#091931"/>
<path d="M50.8029 190.074H47.5366C47.4769 189.652 47.3551 189.276 47.1712 188.948C46.9872 188.615 46.7511 188.332 46.4627 188.098C46.1744 187.864 45.8413 187.685 45.4634 187.561C45.0906 187.437 44.6854 187.375 44.2479 187.375C43.4574 187.375 42.7688 187.571 42.1822 187.964C41.5955 188.352 41.1406 188.918 40.8175 189.664C40.4943 190.405 40.3327 191.305 40.3327 192.364C40.3327 193.452 40.4943 194.367 40.8175 195.108C41.1456 195.849 41.603 196.408 42.1896 196.786C42.7763 197.164 43.4549 197.353 44.2255 197.353C44.658 197.353 45.0582 197.295 45.4261 197.181C45.799 197.067 46.1296 196.9 46.418 196.681C46.7063 196.458 46.945 196.187 47.1339 195.869C47.3278 195.55 47.462 195.187 47.5366 194.78L50.8029 194.795C50.7184 195.496 50.5071 196.172 50.169 196.823C49.8359 197.469 49.386 198.049 48.8192 198.561C48.2575 199.068 47.5863 199.471 46.8058 199.769C46.0302 200.062 45.1527 200.209 44.1733 200.209C42.8111 200.209 41.593 199.901 40.5192 199.284C39.4503 198.668 38.6051 197.775 37.9837 196.607C37.3672 195.439 37.0589 194.024 37.0589 192.364C37.0589 190.698 37.3722 189.281 37.9986 188.113C38.625 186.945 39.4751 186.055 40.549 185.443C41.6229 184.827 42.831 184.518 44.1733 184.518C45.0582 184.518 45.8786 184.643 46.6342 184.891C47.3949 185.14 48.0685 185.503 48.6552 185.98C49.2418 186.452 49.7191 187.032 50.087 187.718C50.4599 188.404 50.6985 189.189 50.8029 190.074ZM53.0588 200V188.545H56.1387V190.544H56.258C56.4668 189.833 56.8173 189.296 57.3095 188.933C57.8017 188.565 58.3684 188.381 59.0098 188.381C59.1689 188.381 59.3404 188.391 59.5243 188.411C59.7083 188.431 59.8699 188.458 60.0091 188.493V191.312C59.8599 191.267 59.6536 191.228 59.3901 191.193C59.1266 191.158 58.8855 191.141 58.6667 191.141C58.1994 191.141 57.7818 191.243 57.4139 191.446C57.051 191.645 56.7626 191.924 56.5488 192.282C56.34 192.64 56.2356 193.052 56.2356 193.52V200H53.0588ZM66.3385 200.224C65.1602 200.224 64.146 199.985 63.2959 199.508C62.4507 199.026 61.7994 198.344 61.3421 197.464C60.8847 196.58 60.656 195.533 60.656 194.325C60.656 193.147 60.8847 192.113 61.3421 191.223C61.7994 190.333 62.4433 189.639 63.2735 189.142C64.1088 188.645 65.0882 188.396 66.2117 188.396C66.9674 188.396 67.6709 188.518 68.3222 188.762C68.9784 189 69.5502 189.361 70.0374 189.843C70.5296 190.325 70.9124 190.932 71.1858 191.663C71.4593 192.388 71.596 193.239 71.596 194.213V195.086H61.9237V193.117H68.6056C68.6056 192.659 68.5061 192.254 68.3073 191.901C68.1084 191.548 67.8325 191.272 67.4795 191.074C67.1315 190.87 66.7263 190.768 66.2639 190.768C65.7817 190.768 65.3541 190.88 64.9813 191.103C64.6134 191.322 64.325 191.618 64.1162 191.991C63.9074 192.359 63.8005 192.769 63.7955 193.221V195.093C63.7955 195.66 63.8999 196.15 64.1088 196.562C64.3225 196.975 64.6233 197.293 65.0111 197.517C65.3989 197.74 65.8588 197.852 66.3907 197.852C66.7437 197.852 67.0669 197.803 67.3602 197.703C67.6535 197.604 67.9046 197.455 68.1134 197.256C68.3222 197.057 68.4813 196.813 68.5906 196.525L71.5289 196.719C71.3797 197.425 71.074 198.041 70.6116 198.568C70.1542 199.09 69.5626 199.498 68.8367 199.791C68.1159 200.08 67.2831 200.224 66.3385 200.224ZM76.9355 200.216C76.2046 200.216 75.5534 200.089 74.9816 199.836C74.4099 199.577 73.9575 199.197 73.6244 198.695C73.2963 198.188 73.1322 197.556 73.1322 196.801C73.1322 196.164 73.249 195.63 73.4827 195.197C73.7164 194.765 74.0345 194.417 74.4372 194.153C74.8399 193.89 75.2973 193.691 75.8094 193.557C76.3264 193.423 76.8683 193.328 77.4351 193.273C78.1013 193.204 78.6382 193.139 79.0459 193.08C79.4536 193.015 79.7494 192.92 79.9333 192.796C80.1173 192.672 80.2093 192.488 80.2093 192.244V192.2C80.2093 191.727 80.0601 191.362 79.7618 191.103C79.4685 190.845 79.0509 190.716 78.509 190.716C77.9372 190.716 77.4823 190.842 77.1443 191.096C76.8062 191.344 76.5825 191.658 76.4731 192.036L73.5349 191.797C73.684 191.101 73.9774 190.499 74.4149 189.992C74.8524 189.48 75.4166 189.087 76.1077 188.814C76.8037 188.536 77.6091 188.396 78.5239 188.396C79.1602 188.396 79.7693 188.471 80.3509 188.62C80.9376 188.769 81.4571 189 81.9095 189.314C82.3669 189.627 82.7274 190.029 82.9909 190.522C83.2544 191.009 83.3861 191.593 83.3861 192.274V200H80.3733V198.412H80.2838C80.0999 198.77 79.8538 199.085 79.5455 199.359C79.2373 199.627 78.8669 199.838 78.4344 199.993C78.0019 200.142 77.5022 200.216 76.9355 200.216ZM77.8453 198.024C78.3126 198.024 78.7252 197.932 79.0832 197.748C79.4411 197.559 79.722 197.305 79.9259 196.987C80.1297 196.669 80.2316 196.309 80.2316 195.906V194.69C80.1322 194.755 79.9955 194.815 79.8215 194.869C79.6524 194.919 79.461 194.966 79.2472 195.011C79.0335 195.051 78.8197 195.088 78.6059 195.123C78.3921 195.153 78.1982 195.18 78.0242 195.205C77.6514 195.26 77.3257 195.347 77.0473 195.466C76.7689 195.585 76.5526 195.747 76.3985 195.951C76.2444 196.15 76.1673 196.398 76.1673 196.696C76.1673 197.129 76.324 197.46 76.6372 197.688C76.9553 197.912 77.358 198.024 77.8453 198.024ZM91.9434 188.545V190.932H85.0454V188.545H91.9434ZM86.6114 185.801H89.7883V196.48C89.7883 196.773 89.833 197.002 89.9225 197.166C90.012 197.325 90.1363 197.437 90.2954 197.502C90.4594 197.566 90.6483 197.599 90.8621 197.599C91.0113 197.599 91.1604 197.586 91.3096 197.561C91.4587 197.532 91.5731 197.509 91.6526 197.494L92.1523 199.858C91.9932 199.908 91.7694 199.965 91.4811 200.03C91.1927 200.099 90.8422 200.142 90.4296 200.157C89.664 200.186 88.9928 200.085 88.4161 199.851C87.8444 199.617 87.3994 199.254 87.0812 198.762C86.7631 198.27 86.6064 197.648 86.6114 196.898V185.801ZM99.11 200.224C97.9317 200.224 96.9175 199.985 96.0674 199.508C95.2222 199.026 94.5709 198.344 94.1135 197.464C93.6562 196.58 93.4275 195.533 93.4275 194.325C93.4275 193.147 93.6562 192.113 94.1135 191.223C94.5709 190.333 95.2148 189.639 96.045 189.142C96.8802 188.645 97.8596 188.396 98.9832 188.396C99.7389 188.396 100.442 188.518 101.094 188.762C101.75 189 102.322 189.361 102.809 189.843C103.301 190.325 103.684 190.932 103.957 191.663C104.231 192.388 104.367 193.239 104.367 194.213V195.086H94.6952V193.117H101.377C101.377 192.659 101.278 192.254 101.079 191.901C100.88 191.548 100.604 191.272 100.251 191.074C99.903 190.87 99.4978 190.768 99.0354 190.768C98.5532 190.768 98.1256 190.88 97.7528 191.103C97.3849 191.322 97.0965 191.618 96.8877 191.991C96.6789 192.359 96.572 192.769 96.567 193.221V195.093C96.567 195.66 96.6714 196.15 96.8802 196.562C97.094 196.975 97.3948 197.293 97.7826 197.517C98.1704 197.74 98.6302 197.852 99.1622 197.852C99.5152 197.852 99.8383 197.803 100.132 197.703C100.425 197.604 100.676 197.455 100.885 197.256C101.094 197.057 101.253 196.813 101.362 196.525L104.3 196.719C104.151 197.425 103.845 198.041 103.383 198.568C102.926 199.09 102.334 199.498 101.608 199.791C100.887 200.08 100.055 200.224 99.11 200.224ZM110.779 187.39V184.727H123.322V187.39H118.646V200H115.455V187.39H110.779ZM127.036 200.216C126.305 200.216 125.654 200.089 125.082 199.836C124.51 199.577 124.058 199.197 123.725 198.695C123.397 198.188 123.233 197.556 123.233 196.801C123.233 196.164 123.35 195.63 123.583 195.197C123.817 194.765 124.135 194.417 124.538 194.153C124.941 193.89 125.398 193.691 125.91 193.557C126.427 193.423 126.969 193.328 127.536 193.273C128.202 193.204 128.739 193.139 129.146 193.08C129.554 193.015 129.85 192.92 130.034 192.796C130.218 192.672 130.31 192.488 130.31 192.244V192.2C130.31 191.727 130.161 191.362 129.862 191.103C129.569 190.845 129.151 190.716 128.61 190.716C128.038 190.716 127.583 190.842 127.245 191.096C126.907 191.344 126.683 191.658 126.574 192.036L123.635 191.797C123.785 191.101 124.078 190.499 124.515 189.992C124.953 189.48 125.517 189.087 126.208 188.814C126.904 188.536 127.71 188.396 128.624 188.396C129.261 188.396 129.87 188.471 130.452 188.62C131.038 188.769 131.558 189 132.01 189.314C132.468 189.627 132.828 190.029 133.091 190.522C133.355 191.009 133.487 191.593 133.487 192.274V200H130.474V198.412H130.384C130.2 198.77 129.954 199.085 129.646 199.359C129.338 199.627 128.968 199.838 128.535 199.993C128.102 200.142 127.603 200.216 127.036 200.216ZM127.946 198.024C128.413 198.024 128.826 197.932 129.184 197.748C129.542 197.559 129.823 197.305 130.026 196.987C130.23 196.669 130.332 196.309 130.332 195.906V194.69C130.233 194.755 130.096 194.815 129.922 194.869C129.753 194.919 129.562 194.966 129.348 195.011C129.134 195.051 128.92 195.088 128.706 195.123C128.493 195.153 128.299 195.18 128.125 195.205C127.752 195.26 127.426 195.347 127.148 195.466C126.869 195.585 126.653 195.747 126.499 195.951C126.345 196.15 126.268 196.398 126.268 196.696C126.268 197.129 126.425 197.46 126.738 197.688C127.056 197.912 127.459 198.024 127.946 198.024ZM145.482 191.812L142.574 191.991C142.524 191.742 142.417 191.518 142.253 191.32C142.089 191.116 141.873 190.954 141.604 190.835C141.341 190.711 141.025 190.648 140.657 190.648C140.165 190.648 139.75 190.753 139.412 190.962C139.074 191.165 138.904 191.439 138.904 191.782C138.904 192.055 139.014 192.287 139.233 192.475C139.451 192.664 139.827 192.816 140.359 192.93L142.432 193.348C143.545 193.577 144.376 193.945 144.923 194.452C145.469 194.959 145.743 195.625 145.743 196.45C145.743 197.201 145.522 197.86 145.079 198.426C144.642 198.993 144.04 199.436 143.275 199.754C142.514 200.067 141.636 200.224 140.642 200.224C139.126 200.224 137.918 199.908 137.018 199.277C136.123 198.64 135.598 197.775 135.444 196.681L138.569 196.517C138.663 196.98 138.892 197.333 139.255 197.576C139.618 197.815 140.083 197.934 140.65 197.934C141.206 197.934 141.654 197.827 141.992 197.614C142.335 197.395 142.509 197.114 142.514 196.771C142.509 196.483 142.387 196.246 142.148 196.062C141.91 195.874 141.542 195.729 141.045 195.63L139.061 195.235C137.942 195.011 137.11 194.623 136.563 194.071C136.021 193.52 135.75 192.816 135.75 191.961C135.75 191.225 135.949 190.591 136.347 190.059C136.749 189.527 137.314 189.117 138.039 188.829C138.77 188.54 139.625 188.396 140.605 188.396C142.051 188.396 143.19 188.702 144.02 189.314C144.855 189.925 145.343 190.758 145.482 191.812ZM150.622 196.704L150.629 192.893H151.092L154.761 188.545H158.407L153.478 194.303H152.725L150.622 196.704ZM147.743 200V184.727H150.92V200H147.743ZM154.902 200L151.532 195.011L153.65 192.766L158.624 200H154.902Z" fill="white"/>
<mask id="mask2_70_783" style="mask-type:alpha" maskUnits="userSpaceOnUse" x="163" y="180" width="24" height="24">
<rect x="163" y="180" width="24" height="24" fill="#D9D9D9"/>
</mask>
<g mask="url(#mask2_70_783)">
<path d="M172.551 195.15L181.026 186.675C181.226 186.475 181.463 186.375 181.738 186.375C182.013 186.375 182.251 186.475 182.451 186.675C182.651 186.875 182.751 187.112 182.751 187.387C182.751 187.662 182.651 187.9 182.451 188.1L173.251 197.3C173.051 197.5 172.817 197.6 172.551 197.6C172.284 197.6 172.051 197.5 171.851 197.3L167.551 193C167.351 192.8 167.255 192.562 167.263 192.287C167.272 192.012 167.376 191.775 167.576 191.575C167.776 191.375 168.013 191.275 168.288 191.275C168.563 191.275 168.801 191.375 169.001 191.575L172.551 195.15Z" fill="white"/>
</g>
</g>
<defs>
<filter id="filter0_d_70_783" x="16" y="92" width="191" height="64" filterUnits="userSpaceOnUse" color-interpolation-filters="sRGB">
<feFlood flood-opacity="0" result="BackgroundImageFix"/>
<feColorMatrix in="SourceAlpha" type="matrix" values="0 0 0 0 0 0 0 0 0 0 0 0 0 0 0 0 0 0 127 0" result="hardAlpha"/>
<feOffset dy="4"/>
<feGaussianBlur stdDeviation="2"/>
<feComposite in2="hardAlpha" operator="out"/>
<feColorMatrix type="matrix" values="0 0 0 0 0 0 0 0 0 0 0 0 0 0 0 0 0 0 0.25 0"/>
<feBlend mode="normal" in2="BackgroundImageFix" result="effect1_dropShadow_70_783"/>
<feBlend mode="normal" in="SourceGraphic" in2="effect1_dropShadow_70_783" result="shape"/>
</filter>
<filter id="filter1_d_70_783" x="16" y="164" width="191" height="64" filterUnits="userSpaceOnUse" color-interpolation-filters="sRGB">
<feFlood flood-opacity="0" result="BackgroundImageFix"/>
<feColorMatrix in="SourceAlpha" type="matrix" values="0 0 0 0 0 0 0 0 0 0 0 0 0 0 0 0 0 0 127 0" result="hardAlpha"/>
<feOffset dy="4"/>
<feGaussianBlur stdDeviation="2"/>
<feComposite in2="hardAlpha" operator="out"/>
<feColorMatrix type="matrix" values="0 0 0 0 0 0 0 0 0 0 0 0 0 0 0 0 0 0 0.25 0"/>
<feBlend mode="normal" in2="BackgroundImageFix" result="effect1_dropShadow_70_783"/>
<feBlend mode="normal" in="SourceGraphic" in2="effect1_dropShadow_70_783" result="shape"/>
</filter>
</defs>
</svg>
